<svg xmlns="http://www.w3.org/2000/svg" viewBox="0 0 512 512"><defs><style>.cls-1{fill:#5f79a5;}.cls-2{fill:#586f99;}.cls-3{fill:#dcdcdc;}.cls-4{fill:#bbb;}.cls-5{fill:#596060;}.cls-6{fill:#4c5657;}.cls-7{fill:#f6f6f6;}.cls-8{fill:#eaf2ff;}.cls-9{fill:#c1d1f7;}.cls-10{fill:#e9a648;}</style></defs><title>37. Oxygen</title><g id="_37._Oxygen" data-name="37. Oxygen"><rect class="cls-1" x="144" y="160" width="144" height="288"/><path class="cls-2" d="M288,385.8V448H232.45A72.14,72.14,0,0,1,288,385.8Z"/><rect class="cls-2" x="144" y="424" width="144" height="24"/><path d="M288,456H144a8,8,0,0,1-8-8V280a8,8,0,0,1,16,0V440H280V168H152v80a8,8,0,0,1-16,0V160a8,8,0,0,1,8-8H288a8,8,0,0,1,8,8V448A8,8,0,0,1,288,456Z"/><path class="cls-3" d="M400,24a16,16,0,0,1-16,16H320V480H144a32,32,0,0,1-32-32H288V40A32,32,0,0,1,320,8h64A16,16,0,0,1,400,24Z"/><path class="cls-4" d="M320,385.8V480H236.12a71.77,71.77,0,0,1-3.67-32H288V385.8A72,72,0,0,1,320,385.8Z"/><path class="cls-4" d="M144,456a31.84,31.84,0,0,1-21.15-8H112a32,32,0,0,0,32,32H320V456Z"/><path d="M320,488H144a40,40,0,0,1-40-40,8,8,0,0,1,8-8H280V40A40,40,0,0,1,320,0h64a24,24,0,0,1,0,48H328V376a8,8,0,0,1-16,0V40a8,8,0,0,1,8-8h64a8,8,0,0,0,0-16H320a24,24,0,0,0-24,24V448a8,8,0,0,1-8,8H121.37A24,24,0,0,0,144,472H312V416a8,8,0,0,1,16,0v64A8,8,0,0,1,320,488Z"/><circle class="cls-5" cx="304" cy="456" r="48"/><path class="cls-6" d="M304,480a48,48,0,0,1-46.49-36,48,48,0,1,0,93,0A48,48,0,0,1,304,480Z"/><path d="M304,512a56,56,0,1,1,56-56A56.06,56.06,0,0,1,304,512Zm0-96a40,40,0,1,0,40,40A40,40,0,0,0,304,416Z"/><circle class="cls-7" cx="304" cy="456" r="16"/><path d="M304,480a24,24,0,1,1,24-24A24,24,0,0,1,304,480Zm0-32a8,8,0,1,0,8,8A8,8,0,0,0,304,448Z"/><polygon class="cls-8" points="144 160 184 104 249 104 288 160 144 160"/><polygon class="cls-9" points="161.14 136 144 160 288 160 271.29 136 161.14 136"/><path d="M288,168H144a8,8,0,0,1-6.51-12.65l40-56A8,8,0,0,1,184,96h65a8,8,0,0,1,6.56,3.43l39,56A8,8,0,0,1,288,168ZM159.55,152H272.68l-27.86-40h-56.7Z"/><rect class="cls-8" x="184" y="72" width="64" height="32"/><path d="M248,112H184a8,8,0,0,1-8-8V72a8,8,0,0,1,8-8h64a8,8,0,0,1,8,8v32A8,8,0,0,1,248,112ZM192,96h48V80H192Z"/><rect class="cls-9" x="200" y="40" width="32" height="32"/><path d="M232,80H200a8,8,0,0,1-8-8V40a8,8,0,0,1,8-8h32a8,8,0,0,1,8,8V72A8,8,0,0,1,232,80ZM208,64h16V48H208Z"/><rect class="cls-10" x="184" y="8" width="64" height="32"/><path d="M248,48H184a8,8,0,0,1-8-8V8a8,8,0,0,1,8-8h64a8,8,0,0,1,8,8V40A8,8,0,0,1,248,48ZM192,32h48V16H192Z"/><rect class="cls-3" x="144" y="216" width="144" height="32"/><path d="M288,256H144a8,8,0,0,1-8-8V216a8,8,0,0,1,8-8H288a8,8,0,0,1,8,8v32A8,8,0,0,1,288,256ZM152,240H280V224H152Z"/><rect class="cls-3" x="144" y="328" width="144" height="32"/><path d="M288,368H144a8,8,0,0,1-8-8V328a8,8,0,0,1,8-8H288a8,8,0,0,1,8,8v32A8,8,0,0,1,288,368ZM152,352H280V336H152Z"/></g></svg>