<svg xmlns="http://www.w3.org/2000/svg" viewBox="0 0 512 512"><defs><style>.cls-1{fill:#dcdcdc;}.cls-2{fill:#bbb;}.cls-3{fill:#eaf2ff;}.cls-4{fill:#c1d1f7;}.cls-5{fill:#596060;}.cls-6{fill:#4c5657;}.cls-7{fill:#e38499;}</style></defs><title>9. Cardiogram</title><g id="_9._Cardiogram" data-name="9. Cardiogram"><rect class="cls-1" x="8" y="8" width="496" height="400" rx="32"/><path class="cls-2" d="M472,384H40A32,32,0,0,1,8,352v24a32,32,0,0,0,32,32H472a32,32,0,0,0,32-32V352A32,32,0,0,1,472,384Z"/><path d="M472,416H40A40,40,0,0,1,0,376V344a8,8,0,0,1,16,0v32a24,24,0,0,0,24,24H472a24,24,0,0,0,24-24V40a24,24,0,0,0-24-24H40A24,24,0,0,0,16,40V312a8,8,0,0,1-16,0V40A40,40,0,0,1,40,0H472a40,40,0,0,1,40,40V376A40,40,0,0,1,472,416Z"/><rect class="cls-3" x="88" y="408" width="336" height="48"/><rect class="cls-4" x="88" y="408" width="336" height="24"/><path d="M424,464H88a8,8,0,0,1-8-8V408a8,8,0,0,1,8-8H424a8,8,0,0,1,8,8v48A8,8,0,0,1,424,464ZM96,448H416V416H96Z"/><rect class="cls-1" x="8" y="456" width="496" height="48" rx="16"/><path class="cls-2" d="M488,480H24A16,16,0,0,1,8.52,468c-.69,2.71-.52,2.56-.52,20a16,16,0,0,0,16,16H488a16,16,0,0,0,16-16c0-17.4.17-17.29-.52-20A16,16,0,0,1,488,480Z"/><path d="M488,512H448a8,8,0,0,1,0-16h40a8,8,0,0,0,8-8V472a8,8,0,0,0-8-8H24a8,8,0,0,0-8,8v16a8,8,0,0,0,8,8H416a8,8,0,0,1,0,16H24A24,24,0,0,1,0,488V472a24,24,0,0,1,24-24H488a24,24,0,0,1,24,24v16A24,24,0,0,1,488,512Z"/><rect class="cls-3" x="40" y="40" width="352" height="336" rx="8"/><path class="cls-4" d="M384,352H48a8,8,0,0,1-8-8v24a8,8,0,0,0,8,8H384a8,8,0,0,0,8-8V344A8,8,0,0,1,384,352Z"/><path d="M384,384H48a16,16,0,0,1-16-16V48A16,16,0,0,1,48,32H384a16,16,0,0,1,16,16V368A16,16,0,0,1,384,384ZM48,48V368H384c.1,0,0,3.57,0-320Z"/><rect class="cls-5" x="424" y="40" width="48" height="48"/><rect class="cls-6" x="424" y="64" width="48" height="24"/><path d="M472,96H424a8,8,0,0,1-8-8V40a8,8,0,0,1,8-8h48a8,8,0,0,1,8,8V88A8,8,0,0,1,472,96ZM432,80h32V48H432Z"/><rect class="cls-5" x="424" y="120" width="48" height="48"/><rect class="cls-6" x="424" y="144" width="48" height="24"/><path d="M472,176H424a8,8,0,0,1-8-8V120a8,8,0,0,1,8-8h48a8,8,0,0,1,8,8v48A8,8,0,0,1,472,176Zm-40-16h32V128H432Z"/><rect class="cls-5" x="424" y="200" width="48" height="48"/><rect class="cls-6" x="424" y="224" width="48" height="24"/><path d="M472,256H424a8,8,0,0,1-8-8V200a8,8,0,0,1,8-8h48a8,8,0,0,1,8,8v48A8,8,0,0,1,472,256Zm-40-16h32V208H432Z"/><rect class="cls-5" x="424" y="280" width="48" height="48"/><rect class="cls-6" x="424" y="304" width="48" height="24"/><path d="M472,336H424a8,8,0,0,1-8-8V280a8,8,0,0,1,8-8h48a8,8,0,0,1,8,8v48A8,8,0,0,1,472,336Zm-40-16h32V288H432Z"/><path d="M208.63,331.1l-56.83-135-24.49,55.11A8,8,0,0,1,120,256H72a8,8,0,0,1,0-16h42.8l29.89-67.25a8,8,0,0,1,14.68.15L216,307.38,272.63,172.9a8,8,0,0,1,14.68-.15L317.2,240H360a8,8,0,0,1,0,16H312a8,8,0,0,1-7.31-4.75L280.2,196.14l-56.83,135A8,8,0,0,1,208.63,331.1Z"/><path class="cls-7" d="M72,92.79v-1a19.78,19.78,0,0,1,37.47-8.85L112,88l2.53-5.07A19.78,19.78,0,0,1,152,91.78v1A19.81,19.81,0,0,1,151,99a53.39,53.39,0,0,1-26.75,30.84L112,136l-12.24-6.12A53.39,53.39,0,0,1,73,99,19.87,19.87,0,0,1,72,92.79Z"/><path d="M108.42,143.16,96.18,137a60.93,60.93,0,0,1-30.76-35.46A28.42,28.42,0,0,1,64,91.78a27.79,27.79,0,0,1,48-19.07,27.79,27.79,0,0,1,48,19.07,28.55,28.55,0,0,1-1.42,9.79A60.93,60.93,0,0,1,127.82,137l-12.24,6.13A8,8,0,0,1,108.42,143.16ZM91.78,80A11.79,11.79,0,0,0,80,91.78a13.27,13.27,0,0,0,.6,4.74,45.05,45.05,0,0,0,22.73,26.2l8.67,4.34,8.67-4.34a45.05,45.05,0,0,0,22.73-26.2,13.27,13.27,0,0,0,.6-4.74,11.78,11.78,0,0,0-22.31-5.27l-2.53,5.07a8,8,0,0,1-14.32,0l-2.53-5.07A11.7,11.7,0,0,0,91.78,80Z"/><path d="M232,88H184a8,8,0,0,1,0-16h48a8,8,0,0,1,0,16Z"/><path d="M232,120H184a8,8,0,0,1,0-16h48a8,8,0,0,1,0,16Z"/><path d="M472,384H424a8,8,0,0,1,0-16h48a8,8,0,0,1,0,16Z"/></g></svg>