<svg xmlns="http://www.w3.org/2000/svg" viewBox="0 0 512 512"><defs><style>.cls-1{fill:#dcdcdc;}.cls-2{fill:#bbb;}.cls-3{fill:#cd4f5f;}.cls-4{fill:#b24654;}.cls-5{fill:#73cab2;}.cls-6{fill:#64af93;}.cls-7{fill:#eaf2ff;}</style></defs><title>15. Medical Protection</title><g id="_15._Medical_Protection" data-name="15. Medical Protection"><path class="cls-1" d="M456,96V230A287.68,287.68,0,0,1,256,504,287.68,287.68,0,0,1,56,230V96A262.09,262.09,0,0,0,225.29,34L256,8l30.71,26A262.12,262.12,0,0,0,456,96Z"/><path class="cls-2" d="M256,480h0A287.68,287.68,0,0,1,56,206v24A287.68,287.68,0,0,0,256,504h0A287.68,287.68,0,0,0,456,230V206A287.68,287.68,0,0,1,256,480Z"/><path d="M144,445.11a8,8,0,0,1-5.55-2.24A295.37,295.37,0,0,1,48,230V96a8,8,0,0,1,8-8A254.38,254.38,0,0,0,220.12,27.88l30.71-26a8,8,0,0,1,10.34,0l30.71,26A254.38,254.38,0,0,0,456,88a8,8,0,0,1,8,8v40a8,8,0,0,1-16,0V103.88A270.41,270.41,0,0,1,281.55,40.1L256,18.48,230.45,40.1A270.41,270.41,0,0,1,64,103.88V230a279.42,279.42,0,0,0,85.55,201.35A8,8,0,0,1,144,445.11Z"/><path d="M253.56,511.62a294.68,294.68,0,0,1-90.45-47.45,8,8,0,0,1,9.78-12.67A278.49,278.49,0,0,0,256,495.59,279.47,279.47,0,0,0,448,230V168a8,8,0,0,1,16,0v62A295.54,295.54,0,0,1,258.44,511.62,8,8,0,0,1,253.56,511.62Z"/><path class="cls-1" d="M424,126.25c0,113.15.42,112.55-1.3,129.75A255.63,255.63,0,0,1,256,470.19,255.52,255.52,0,0,1,88,230V126.25A294.57,294.57,0,0,0,246,58.42l10-8.5,10,8.5A294.57,294.57,0,0,0,424,126.25Z"/><path class="cls-3" d="M422.7,256A255.63,255.63,0,0,1,256,470.19V256Z"/><path class="cls-4" d="M256,440v30.19A255.66,255.66,0,0,0,422.7,256h-4.88A255.77,255.77,0,0,1,256,440Z"/><path class="cls-5" d="M89.3,256A255.63,255.63,0,0,0,256,470.19V256Z"/><path class="cls-6" d="M94.18,256H89.3A255.63,255.63,0,0,0,256,470.19V440A255.77,255.77,0,0,1,94.18,256Z"/><path class="cls-5" d="M424,126.25c0,113.15.42,112.55-1.3,129.75H256V49.92l10,8.5A294.57,294.57,0,0,0,424,126.25Z"/><path class="cls-3" d="M88,126.25C88,239.4,87.58,238.8,89.3,256H256V49.92l-10,8.5A294.57,294.57,0,0,1,88,126.25Z"/><path d="M253.26,477.71A263.55,263.55,0,0,1,80,230V126.25a8,8,0,0,1,7.13-8,285.29,285.29,0,0,0,153.66-66l10-8.5a8,8,0,0,1,10.34,0l10,8.5a285.29,285.29,0,0,0,153.66,66,8,8,0,0,1,7.13,8V230a263.54,263.54,0,0,1-173.26,247.7A8.06,8.06,0,0,1,253.26,477.71ZM96,133.33V230A247.57,247.57,0,0,0,256,461.66,247.56,247.56,0,0,0,416,230V133.33A301,301,0,0,1,260.88,64.52L256,60.4l-4.88,4.12A301,301,0,0,1,96,133.33Z"/><path d="M256,472a8,8,0,0,1-8-8V56a8,8,0,0,1,16,0V464A8,8,0,0,1,256,472Z"/><path d="M416,264H96a8,8,0,0,1,0-16H416a8,8,0,0,1,0,16Z"/><polygon class="cls-7" points="328 232 280 232 280 184 232 184 232 232 184 232 184 280 232 280 232 328 280 328 280 280 328 280 328 232"/><path d="M280,336H232a8,8,0,0,1-8-8V288H184a8,8,0,0,1-8-8V232a8,8,0,0,1,8-8h40V184a8,8,0,0,1,8-8h48a8,8,0,0,1,8,8v40h40a8,8,0,0,1,8,8v48a8,8,0,0,1-8,8H288v40A8,8,0,0,1,280,336Zm-40-16h32V280a8,8,0,0,1,8-8h40V240H280a8,8,0,0,1-8-8V192H240v40a8,8,0,0,1-8,8H192v32h40a8,8,0,0,1,8,8Z"/></g></svg>